<svg xmlns="http://www.w3.org/2000/svg" xmlns:xlink="http://www.w3.org/1999/xlink" viewBox="0 0 256.917 206.851">
  <defs>
    <style>
      .cls-1, .cls-3, .cls-5 {
        fill: none;
      }

      .cls-2 {
        clip-path: url(#clip-path);
      }

      .cls-3, .cls-5 {
        stroke: #f34852;
      }

      .cls-3 {
        stroke-width: 6px;
      }

      .cls-4 {
        fill: #ffebcf;
      }

      .cls-5 {
        stroke-width: 4px;
      }
    </style>
    <clipPath id="clip-path">
      <path id="Path_255" data-name="Path 255" class="cls-1" d="M0-372.021H256.917V-165.17H0Z" transform="translate(0 372.021)"/>
    </clipPath>
  </defs>
  <g id="Group_50" data-name="Group 50" class="cls-2">
    <g id="Group_26" data-name="Group 26" transform="translate(60.675 88.419)">
      <path id="Path_231" data-name="Path 231" class="cls-3" d="M-42.622-21.311A26.689,26.689,0,0,1-69.311,5.378,26.689,26.689,0,0,1-96-21.311,26.689,26.689,0,0,1-69.311-48,26.689,26.689,0,0,1-42.622-21.311Z" transform="translate(96 48)"/>
    </g>
    <g id="Group_27" data-name="Group 27" transform="translate(141.854 88.419)">
      <path id="Path_232" data-name="Path 232" class="cls-3" d="M-42.622-21.311A26.689,26.689,0,0,1-69.311,5.378,26.689,26.689,0,0,1-96-21.311,26.689,26.689,0,0,1-69.311-48,26.689,26.689,0,0,1-42.622-21.311Z" transform="translate(96 48)"/>
    </g>
    <g id="Group_28" data-name="Group 28" transform="translate(151.863 98.427)">
      <path id="Path_233" data-name="Path 233" class="cls-3" d="M-27.083-13.541A16.958,16.958,0,0,1-44.041,3.417,16.958,16.958,0,0,1-61-13.541,16.958,16.958,0,0,1-44.041-30.5,16.958,16.958,0,0,1-27.083-13.541Z" transform="translate(61 30.5)"/>
    </g>
    <g id="Group_29" data-name="Group 29" transform="translate(71.24 98.149)">
      <path id="Path_234" data-name="Path 234" class="cls-3" d="M-27.083-13.541A16.958,16.958,0,0,1-44.041,3.417,16.958,16.958,0,0,1-61-13.541,16.958,16.958,0,0,1-44.041-30.5,16.958,16.958,0,0,1-27.083-13.541Z" transform="translate(61 30.5)"/>
    </g>
    <g id="Group_30" data-name="Group 30" transform="translate(57.339 154.029)">
      <path id="Path_235" data-name="Path 235" class="cls-3" d="M0-29.3H141.229L120.656-66H18.9Z" transform="translate(0 66)"/>
    </g>
    <g id="Group_31" data-name="Group 31" transform="translate(67.903 172.378)">
      <path id="Path_236" data-name="Path 236" class="cls-3" d="M0,0H121.212"/>
    </g>
    <g id="Group_32" data-name="Group 32" transform="translate(99.041 154.029)">
      <path id="Path_237" data-name="Path 237" class="cls-3" d="M0,0V35.585"/>
    </g>
    <g id="Group_33" data-name="Group 33" transform="translate(127.398 155.697)">
      <path id="Path_238" data-name="Path 238" class="cls-3" d="M0,0V33.917"/>
    </g>
    <g id="Group_34" data-name="Group 34" transform="translate(156.311 154.029)">
      <path id="Path_239" data-name="Path 239" class="cls-3" d="M0,0V35.585"/>
    </g>
    <g id="Group_35" data-name="Group 35" transform="translate(33.444 37.821)">
      <path id="Path_240" data-name="Path 240" class="cls-3" d="M-76.364,0C-129.183,0-172,50.285-172,112.316a127.269,127.269,0,0,0,12.261,55.046H7.01a127.269,127.269,0,0,0,12.261-55.046C19.271,50.285-23.546,0-76.364,0Z" transform="translate(172 0)"/>
    </g>
    <g id="Group_36" data-name="Group 36" transform="translate(2.293 14.468)">
      <path id="Path_241" data-name="Path 241" class="cls-3" d="M-32.41-66.153-73-76.161S-42.419-149,54.329-149s125.1,74.507,125.1,74.507L139.956-62.261" transform="translate(73 149)"/>
    </g>
    <g id="Group_37" data-name="Group 37" transform="translate(25.646 53.946)">
      <path id="Path_242" data-name="Path 242" class="cls-3" d="M-27.527-15.1-62-34" transform="translate(62 34)"/>
    </g>
    <g id="Group_38" data-name="Group 38" transform="translate(92.183 18.916)">
      <path id="Path_243" data-name="Path 243" class="cls-3" d="M-9.768-18.2-22-41" transform="translate(22 41)"/>
    </g>
    <g id="Group_39" data-name="Group 39" transform="translate(147.044 17.248)">
      <path id="Path_244" data-name="Path 244" class="cls-3" d="M0-17.759,13.344-40" transform="translate(0 40)"/>
    </g>
    <g id="Group_40" data-name="Group 40" transform="translate(196.9 45.049)">
      <path id="Path_245" data-name="Path 245" class="cls-3" d="M0-20.867,24.465-47" transform="translate(0 47)"/>
    </g>
    <g id="Group_41" data-name="Group 41" transform="translate(79.322 1.668)">
      <path id="Path_246" data-name="Path 246" class="cls-4" d="M-63.163-33.5a20.018,20.018,0,0,0-5.979,1.035,56.514,56.514,0,0,0,.3-7.039c-.4-20.11-11.175-36.205-24.071-35.949S-115.939-58.69-115.54-38.58a56.279,56.279,0,0,0,.677,7.662,19.954,19.954,0,0,0-7.782-1.4,20.018,20.018,0,0,0-19.616,20.41A20.017,20.017,0,0,0-121.851,7.7a20.02,20.02,0,0,0,18.909-14.73A17.268,17.268,0,0,0-91.469-2.631a16.732,16.732,0,0,0,9.991-3.746,20.023,20.023,0,0,0,19.111,12.9,20.016,20.016,0,0,0,19.615-20.41A20.016,20.016,0,0,0-63.163-33.5" transform="translate(142.265 75.458)"/>
    </g>
    <g id="Group_42" data-name="Group 42" transform="translate(79.322 1.668)">
      <path id="Path_247" data-name="Path 247" class="cls-3" d="M-63.163-33.5a20.018,20.018,0,0,0-5.979,1.035,56.514,56.514,0,0,0,.3-7.039c-.4-20.11-11.175-36.205-24.071-35.949S-115.939-58.69-115.54-38.58a56.279,56.279,0,0,0,.677,7.662,19.954,19.954,0,0,0-7.782-1.4,20.018,20.018,0,0,0-19.616,20.41A20.017,20.017,0,0,0-121.851,7.7a20.02,20.02,0,0,0,18.909-14.73A17.268,17.268,0,0,0-91.469-2.631a16.732,16.732,0,0,0,9.991-3.746,20.023,20.023,0,0,0,19.111,12.9,20.016,20.016,0,0,0,19.615-20.41A20.016,20.016,0,0,0-63.163-33.5Z" transform="translate(142.265 75.458)"/>
    </g>
    <g id="Group_43" data-name="Group 43" transform="translate(119.063 15.013)">
      <path id="Path_248" data-name="Path 248" class="cls-3" d="M-15.988-18.485c.256,12.895-4.017,23.437-9.543,23.547S-35.746-5.194-36-18.088s4.016-23.437,9.542-23.546S-16.244-31.379-15.988-18.485Z" transform="translate(36.012 41.636)"/>
    </g>
    <g id="Group_44" data-name="Group 44" transform="translate(186.336 135.681)">
      <path id="Path_249" data-name="Path 249" class="cls-5" d="M0,0,35.029,31.137"/>
    </g>
    <g id="Group_45" data-name="Group 45" transform="translate(182.444 78.967)">
      <path id="Path_250" data-name="Path 250" class="cls-5" d="M0-9.768,18.9-22" transform="translate(0 22)"/>
    </g>
    <g id="Group_46" data-name="Group 46" transform="translate(167.431 141.797)">
      <path id="Path_251" data-name="Path 251" class="cls-5" d="M0,0V12.232"/>
    </g>
    <g id="Group_47" data-name="Group 47" transform="translate(35.654 135.681)">
      <path id="Path_252" data-name="Path 252" class="cls-5" d="M-27.971,0-63,31.137" transform="translate(63)"/>
    </g>
    <g id="Group_48" data-name="Group 48" transform="translate(55.671 78.967)">
      <path id="Path_253" data-name="Path 253" class="cls-5" d="M-15.1-9.768-34-22" transform="translate(34 22)"/>
    </g>
    <g id="Group_49" data-name="Group 49" transform="translate(89.588 141.797)">
      <path id="Path_254" data-name="Path 254" class="cls-5" d="M0,0V12.232"/>
    </g>
  </g>
</svg>
