<?xml version="1.0" encoding="utf-8"?>
<!-- Generator: Adobe Illustrator 16.0.0, SVG Export Plug-In . SVG Version: 6.00 Build 0)  -->
<!DOCTYPE svg PUBLIC "-//W3C//DTD SVG 1.1//EN" "http://www.w3.org/Graphics/SVG/1.1/DTD/svg11.dtd">
<svg version="1.1" id="Layer_1" xmlns="http://www.w3.org/2000/svg" xmlns:xlink="http://www.w3.org/1999/xlink" x="0px" y="0px"
	 width="276px" height="280.6px" viewBox="-52.991 -18.401 276 280.6" enable-background="new -52.991 -18.401 276 280.6"
	 xml:space="preserve">
<g id="Layer_2" display="none">
	<rect x="-286.811" y="-859.667" display="inline" fill="#FFEECF" width="750.001" height="1334"/>
</g>
<g>
	<g>
		<path fill="#F34A53" d="M107.891,79.3c-2.785,0-5.104,2.321-5.104,5.105v55.926h-34.81V84.405c0-2.784-2.319-5.105-5.104-5.105
			s-5.105,2.321-5.105,5.105v152.229c0,2.785,2.32,5.105,5.105,5.105s5.104-2.32,5.104-5.105v-67.297h34.81v67.297
			c0,2.785,2.319,5.105,5.104,5.105c2.784,0,5.105-2.32,5.105-5.105V84.405C112.996,81.621,110.675,79.3,107.891,79.3
			 M102.785,159.128H67.977v-8.586h34.81L102.785,159.128L102.785,159.128z"/>
		<path fill="#F34A53" d="M111.346,35.49c4.588,10.271-0.783,22.515-11.279,28.942c-4.663,2.855-12.714,5.49-18.54,5.168
			c-6.727-0.372-12.08-4.506-15.184-9.154c-1.691-2.533-2.779-5.352-3.106-8.229c-0.155-1.374-0.143-2.761,0.064-4.13
			c0.086-0.565,1.299-3.371,1.053-3.702c2.923,3.936,7.724,8.469,12.998,6.893c4.922-1.471,5.478-6.917,5.171-11.21
			c-0.227-3.175-0.466-6.401-1.781-9.392c-1.917-4.354-6.047-8.042-6.865-12.622c-1.05-5.866,4.597-11.975,11.76-12.721
			c-2.442,7.646,2.23,16.423,10.72,20.145c3.719,1.63,8.09,2.408,11.14,4.797C109.303,31.69,110.485,33.564,111.346,35.49"/>
		<g id="Layer_1_1_">
			<g>
				<defs>
					<rect id="SVGID_1_" x="42.772" y="68.693" width="83.468" height="34.318"/>
				</defs>
				<clipPath id="SVGID_2_">
					<use xlink:href="#SVGID_1_"  overflow="visible"/>
				</clipPath>
				<g clip-path="url(#SVGID_2_)">
					<g>
						<defs>
							<rect id="SVGID_3_" x="42.772" y="68.693" width="83.468" height="34.318"/>
						</defs>
						<defs>
							<rect id="SVGID_4_" x="42.772" y="68.693" width="83.468" height="34.318"/>
						</defs>
						<clipPath id="SVGID_5_">
							<use xlink:href="#SVGID_3_"  overflow="visible"/>
						</clipPath>
						<clipPath id="SVGID_6_" clip-path="url(#SVGID_5_)">
							<use xlink:href="#SVGID_4_"  overflow="visible"/>
						</clipPath>
						<path clip-path="url(#SVGID_6_)" fill="#F34A53" d="M125.463,68.693c3.182,11.668-3.679,24.774-15.8,30.195l-2.661-12.432
							c2.844-1.59,5.513-3.435,7.961-5.477c0.071-0.178,0.12-0.356,0.188-0.534c0.029,0.111,0.025,0.231,0.056,0.342
							C119.342,77.28,122.838,73.19,125.463,68.693"/>
						<path clip-path="url(#SVGID_6_)" fill="#F34A53" d="M57.264,84.081l5.621,18.931c-13.826-5.238-22.486-20.226-19.536-33.777
							C44.497,76.064,50.137,82.08,57.264,84.081"/>
					</g>
				</g>
			</g>
		</g>
	</g>
</g>
</svg>
