<?xml version="1.0" encoding="utf-8"?>
<!-- Generator: Adobe Illustrator 16.0.0, SVG Export Plug-In . SVG Version: 6.00 Build 0)  -->
<!DOCTYPE svg PUBLIC "-//W3C//DTD SVG 1.1//EN" "http://www.w3.org/Graphics/SVG/1.1/DTD/svg11.dtd">
<svg version="1.1" id="Layer_1" xmlns="http://www.w3.org/2000/svg" xmlns:xlink="http://www.w3.org/1999/xlink" x="0px" y="0px"
	 width="1920px" height="1080px" viewBox="0 0 1920 1080" enable-background="new 0 0 1920 1080" xml:space="preserve">
<g>
	<g>
		<defs>
			
				<rect id="SVGID_1_" x="-623.561" y="-338.858" transform="matrix(-0.9995 0.0305 -0.0305 -0.9995 2005.4197 992.532)" width="3237.405" height="1700.831"/>
		</defs>
		<clipPath id="SVGID_2_">
			<use xlink:href="#SVGID_1_"  overflow="visible"/>
		</clipPath>
		<g clip-path="url(#SVGID_2_)">
			<defs>
				<polygon id="SVGID_3_" points="1096.549,-18.687 2285.138,1320.568 2630.229,1069.988 1441.64,-269.265 				"/>
			</defs>
			<clipPath id="SVGID_4_">
				<use xlink:href="#SVGID_3_"  overflow="visible"/>
			</clipPath>
			<g clip-path="url(#SVGID_4_)" enable-background="new    ">
				<g>
					<defs>
						
							<rect id="SVGID_5_" x="1112.783" y="-282.565" transform="matrix(-0.9995 0.0305 -0.0305 -0.9995 3742.6729 995.8532)" width="1501.92" height="1618.059"/>
					</defs>
					<clipPath id="SVGID_6_">
						<use xlink:href="#SVGID_5_"  overflow="visible"/>
					</clipPath>
					<path clip-path="url(#SVGID_6_)" fill="none" stroke="#55C44A" stroke-width="13" d="M1386.37-192.773
						c0,0-128.3,150.296-24.579,267.166c103.722,116.87,169.324-91.785,322.992,87.506
						c153.668,179.288-94.174,250.175,89.575,438.787c183.75,188.611,215.202-52.38,352.562,102.394
						s-190.266,184.902-33.283,361.785c156.983,176.884,244.771-37.49,382.13,117.283"/>
					<path clip-path="url(#SVGID_6_)" fill="none" stroke="#55EC2C" stroke-width="13" d="M2228.004,1138.705
						c0,0,98.599-123.796,3.831-230.576c-94.768-106.779-136.857,70.902-277.647-92.631
						c-140.791-163.527,63.541-212.235-103.18-385.41c-166.725-173.176-178.002,34.332-303.504-107.079
						c-125.501-141.408,148.622-150.629,5.193-312.239c-143.433-161.613-203.854,19.886-329.355-121.525"/>
					<path clip-path="url(#SVGID_6_)" fill="#006837" d="M2057.354,693.891l-0.009-1.111c-0.001,0.172-2.396,0.172-4.108,0.102
						c-24.627-1.004-44.242-20.044-44.394-42.555c-0.149-22.512,20.981-39.898,45.617-38.89c1.825,0.072,2.342,0.205,6.685,0.579
						l-0.001-0.52l1.833,0.995c3.161,0.671,5.688,1.611,8.574,2.838c1.254,0.536,2.209,1.114,3.395,1.738l120.258,43.794
						L2057.354,693.891z"/>
					<path clip-path="url(#SVGID_6_)" fill="#006837" d="M1875.329,407.055l-1.091-0.541c0.171,0.088-0.789,2.048-1.544,3.42
						c-10.854,19.695-37.368,26.413-59.479,15.474c-22.116-10.939-30.68-36.804-19.824-56.505c0.803-1.459,1.142-1.819,3.246-5.199
						l-0.512-0.25l1.715-1.01c1.925-2.266,3.854-3.872,6.217-5.637c1.024-0.764,1.977-1.266,3.064-1.93l91.08-77.053
						L1875.329,407.055z"/>
					<path clip-path="url(#SVGID_6_)" fill="#006837" d="M1809.483,584.723l-1.091-0.543c0.171,0.089-0.789,2.049-1.544,3.423
						c-10.855,19.693-37.368,26.41-59.479,15.471c-22.117-10.938-30.68-36.804-19.824-56.502c0.803-1.462,1.142-1.821,3.246-5.199
						l-0.512-0.253l1.715-1.009c1.925-2.266,3.855-3.869,6.217-5.637c1.023-0.764,1.977-1.263,3.064-1.93l91.08-77.053
						L1809.483,584.723z"/>
					<path clip-path="url(#SVGID_6_)" fill="#006837" d="M1398.452,41.729l-1.091-0.541c0.17,0.089-0.79,2.048-1.544,3.42
						c-10.855,19.695-37.368,26.413-59.48,15.474c-22.116-10.939-30.681-36.804-19.825-56.505c0.803-1.459,1.143-1.822,3.248-5.199
						l-0.512-0.25l1.714-1.012c1.926-2.266,3.855-3.869,6.218-5.637c1.022-0.762,1.975-1.263,3.063-1.927l91.081-77.053
						L1398.452,41.729z"/>
					<path clip-path="url(#SVGID_6_)" fill="#006837" d="M1601.303,338.972l-0.771-0.895c0.119,0.14-1.662,1.525-2.986,2.452
						c-19.018,13.42-46.758,9.365-62.408-8.737c-15.658-18.104-11.938-44.354,7.086-57.775c1.41-0.998,1.885-1.187,5.375-3.398
						l-0.36-0.412l2.052-0.256c2.817-1.286,5.344-1.984,8.342-2.66c1.298-0.292,2.41-0.379,3.729-0.557l119.7-34.087
						L1601.303,338.972z"/>
					<path clip-path="url(#SVGID_6_)" fill="#006837" d="M1636.731,80.178l-1.167-0.363c0.18,0.055-0.385,2.159-0.861,3.637
						c-6.865,21.296-31.476,32.173-55.131,24.808c-23.658-7.368-36.919-31.715-30.054-53.01c0.511-1.581,0.771-1.988,2.184-5.678
						l-0.544-0.171l1.479-1.276c1.45-2.554,3.032-4.457,5.003-6.588c0.854-0.916,1.689-1.564,2.627-2.399l74.314-91.002
						L1636.731,80.178z"/>
					<path clip-path="url(#SVGID_6_)" fill="#006837" d="M2279.84,942.953l-0.784-0.884c0.123,0.14-1.64,1.545-2.945,2.493
						c-18.813,13.659-46.59,9.936-62.492-7.983c-15.905-17.922-12.573-44.235,6.237-57.895c1.396-1.014,1.873-1.208,5.322-3.465
						l-0.364-0.409l2.048-0.279c2.793-1.319,5.311-2.051,8.295-2.765c1.294-0.306,2.403-0.405,3.714-0.604l119.118-35.564
						L2279.84,942.953z"/>
					<path clip-path="url(#SVGID_6_)" fill="#006837" d="M2105.444,902.293l-1.146-0.424c0.18,0.067-0.522,2.126-1.1,3.57
						c-8.269,20.819-33.622,30.29-56.828,21.662c-23.204-8.632-34.88-33.59-26.607-54.404c0.612-1.548,0.902-1.939,2.561-5.53
						l-0.536-0.2l1.567-1.188c1.615-2.463,3.325-4.271,5.438-6.281c0.92-0.87,1.794-1.469,2.787-2.248l80.383-86.478
						L2105.444,902.293z"/>
					<path clip-path="url(#SVGID_6_)" fill="#006837" d="M2231.246,1166.652l0.538-0.971c-0.085,0.148-2.281-0.828-3.816-1.587
						c-22.106-10.958-30.783-35.588-19.916-55.281c10.87-19.688,38.757-26.197,60.862-15.247c1.64,0.815,2.048,1.143,5.853,3.241
						l0.249-0.451l1.193,1.623c2.576,1.875,4.433,3.726,6.482,5.982c0.886,0.977,1.477,1.872,2.262,2.901l88.898,87.393
						L2231.246,1166.652z"/>
				</g>
			</g>
		</g>
		<g clip-path="url(#SVGID_2_)">
			<defs>
				<polygon id="SVGID_7_" points="471.194,-323.27 -606.271,1102.994 -242.137,1326.34 835.328,-99.924 				"/>
			</defs>
			<clipPath id="SVGID_8_">
				<use xlink:href="#SVGID_7_"  overflow="visible"/>
			</clipPath>
			<g clip-path="url(#SVGID_8_)" enable-background="new    ">
				<g>
					<defs>
						
							<rect id="SVGID_9_" x="-624.251" y="-312.021" transform="matrix(-0.9995 0.0305 -0.0305 -0.9995 245.0296 1000.9597)" width="1478.267" height="1628.739"/>
					</defs>
					<clipPath id="SVGID_10_">
						<use xlink:href="#SVGID_9_"  overflow="visible"/>
					</clipPath>
					<path clip-path="url(#SVGID_10_)" fill="none" stroke="#55C44A" stroke-width="13" d="M738.514-124.85
						c0,0-195.87-65.991-289.894,58.472c-94.025,124.459,145.673,118.885-0.132,305.112
						c-145.806,186.23-291.842-6.715-438.901,208.28c-147.059,214.995,117.094,170.269-7.425,335.098
						c-124.519,164.828-250.257-109.196-392.565,79.178c-142.307,188.375,109.799,200.254-14.718,365.083"/>
					<path clip-path="url(#SVGID_10_)" fill="none" stroke="#55EC2C" stroke-width="13" d="M-430.094,999.387
						c0,0,159.307,48.242,245.213-65.475c85.908-113.721-114.263-97.072,18.548-267.476c132.805-170.402,242.9-8.427,378.49-204.104
						c135.593-195.683-87.333-143.522,26.437-294.118c113.767-150.596,202.043,83.445,332.063-88.665
						C700.68-92.563,491.215-90.61,604.983-241.208"/>
					<path clip-path="url(#SVGID_10_)" fill="#006837" d="M-8.035,719.278l1.172-0.341c-0.182,0.053-0.866-2.017-1.283-3.52
						c-5.992-21.573,8.551-44.196,32.34-51.042c23.79-6.846,48.249,6.221,54.238,27.803c0.447,1.599,0.454,2.086,1.302,5.947
						l0.549-0.155l-0.53,1.882c0.197,2.932-0.076,5.392-0.547,8.252c-0.206,1.243-0.545,2.239-0.867,3.452L66.417,828.503
						L-8.035,719.278z"/>
					<path clip-path="url(#SVGID_10_)" fill="#006837" d="M243.507,476.47l0.261-1.104c-0.044,0.173-2.394-0.071-4.064-0.312
						c-23.959-3.503-38.667-24.401-33.419-46.764c5.248-22.371,30.18-37.484,54.145-33.984c1.776,0.259,2.255,0.445,6.434,1.254
						l0.12-0.518l1.562,1.181c2.95,0.987,5.201,2.176,7.748,3.687c1.102,0.658,1.904,1.33,2.92,2.073l107.665,55.69L243.507,476.47z
						"/>
					<path clip-path="url(#SVGID_10_)" fill="#006837" d="M36.549,472.591l0.261-1.104c-0.045,0.174-2.394-0.07-4.063-0.312
						c-23.959-3.503-38.667-24.401-33.419-46.764c5.248-22.368,30.181-37.484,54.146-33.981c1.776,0.256,2.255,0.443,6.434,1.254
						l0.12-0.518l1.561,1.178c2.951,0.988,5.201,2.176,7.749,3.69c1.102,0.655,1.904,1.33,2.92,2.071l107.665,55.69L36.549,472.591z
						"/>
					<path clip-path="url(#SVGID_10_)" fill="#006837" d="M493.699-44.456l0.261-1.104c-0.044,0.173-2.394-0.07-4.063-0.312
						c-23.959-3.503-38.667-24.401-33.419-46.764c5.248-22.369,30.18-37.483,54.145-33.982c1.776,0.257,2.255,0.443,6.434,1.254
						l0.12-0.518l1.561,1.18c2.95,0.987,5.201,2.176,7.749,3.69c1.102,0.655,1.904,1.33,2.92,2.071l107.666,55.69L493.699-44.456z"
						/>
					<path clip-path="url(#SVGID_10_)" fill="#006837" d="M237.105,219.447l0.726-0.933c-0.116,0.145-2.089-0.982-3.454-1.849
						c-19.654-12.423-23.305-37.598-8.624-56.518c14.682-18.925,43.541-23.542,63.197-11.11c1.459,0.918,1.797,1.272,5.137,3.628
						l0.333-0.435l0.857,1.696c2.168,2.049,3.631,4.024,5.206,6.412c0.683,1.036,1.091,1.97,1.659,3.057l70.374,93.229
						L237.105,219.447z"/>
					<path clip-path="url(#SVGID_10_)" fill="#006837" d="M521.243,172.846l0.05-1.116c-0.008,0.173-2.397,0.313-4.097,0.342
						c-24.513,0.422-43.079-17.591-42.056-40.224c1.025-22.633,23.003-41.353,47.516-41.775c1.818-0.029,2.324,0.073,6.637,0.194
						l0.025-0.522l1.775,0.898c3.12,0.492,5.587,1.291,8.407,2.355c1.216,0.466,2.142,0.994,3.295,1.553l117.63,37.047
						L521.243,172.846z"/>
					<path clip-path="url(#SVGID_10_)" fill="#006837" d="M-208,985.769l0.71-0.942c-0.111,0.146-2.103-0.956-3.482-1.801
						c-19.849-12.175-23.863-37.281-9.447-56.365c14.418-19.087,43.232-24.057,63.081-11.882c1.474,0.904,1.815,1.257,5.191,3.564
						l0.33-0.438l0.881,1.688c2.197,2.018,3.694,3.976,5.306,6.342c0.694,1.024,1.114,1.954,1.701,3.026l71.771,92.287L-208,985.769
						z"/>
					<path clip-path="url(#SVGID_10_)" fill="#006837" d="M-214.902,822.99l0.121-1.118c-0.02,0.176-2.399,0.184-4.095,0.117
						c-24.41-0.933-41.698-20.007-39.21-42.627c2.493-22.62,25.571-40.15,49.979-39.215c1.812,0.067,2.31,0.2,6.588,0.561
						l0.056-0.521l1.708,0.999c3.069,0.66,5.474,1.599,8.209,2.822c1.183,0.535,2.067,1.111,3.177,1.737l114.58,43.639
						L-214.902,822.99z"/>
					<path clip-path="url(#SVGID_10_)" fill="#006837" d="M-458.754,1010.526l1.184,0.175c-0.183-0.028,0.221-2.219,0.585-3.771
						c5.27-22.363,28.861-37.207,52.822-33.696c23.958,3.517,38.838,25.664,33.575,48.027c-0.393,1.66-0.62,2.111-1.754,6.022
						l0.548,0.082l-1.374,1.514c-1.248,2.784-2.677,4.938-4.479,7.383c-0.782,1.058-1.559,1.835-2.425,2.821l-67.062,102.864
						L-458.754,1010.526z"/>
				</g>
			</g>
		</g>
		<g clip-path="url(#SVGID_2_)">
			<defs>
				<polygon id="SVGID_11_" points="1904.571,90.166 4.177,-31.893 -29.858,365.837 1870.537,487.896 				"/>
			</defs>
			<clipPath id="SVGID_12_">
				<use xlink:href="#SVGID_11_"  overflow="visible"/>
			</clipPath>
			<g clip-path="url(#SVGID_12_)" enable-background="new    ">
				<g>
					<defs>
						
							<rect id="SVGID_13_" x="-35.03" y="-62.221" transform="matrix(-0.9995 0.0305 -0.0305 -0.9995 1881.8403 426.2635)" width="1945.4" height="579.404"/>
					</defs>
					<clipPath id="SVGID_14_">
						<use xlink:href="#SVGID_13_"  overflow="visible"/>
					</clipPath>
					<path clip-path="url(#SVGID_14_)" fill="none" stroke="#55C44A" stroke-width="13" d="M1846.55,399.562
						c0,0-33.608-186.574-199.445-197.227c-165.836-10.651-41.934,174.04-292.601,154.098
						c-250.67-19.94-137.909-231.695-416.777-238.078c-278.87-6.386-105.336,177.652-324.957,163.545
						C393.148,267.795,593.684,30.943,342.688,14.822C91.693-1.299,204.997,201.921-14.624,187.816"/>
					<path clip-path="url(#SVGID_14_)" fill="none" stroke="#55EC2C" stroke-width="13" d="M190.651,53.566
						c0,0,32.543,149,184.063,158.733c151.521,9.73,36.552-138.445,265.622-120.668c229.063,17.771,128.219,185.756,382.896,192.93
						c254.682,7.176,94.407-140.852,295.07-127.963c200.657,12.888,19.924,200.228,249.249,214.957
						c229.329,14.729,123.853-148.144,324.514-135.255"/>
					<path clip-path="url(#SVGID_14_)" fill="#006837" d="M667.969,242.167l0.905,0.747c-0.138-0.118,1.507-1.697,2.74-2.784
						c17.72-15.59,46.604-15.646,64.933-0.496c18.331,15.15,17.9,40.888,0.17,56.48c-1.312,1.157-1.775,1.406-5.059,4.023
						l0.421,0.35l-2.065,0.535c-2.713,1.638-5.208,2.668-8.185,3.743c-1.292,0.467-2.417,0.708-3.737,1.069l-118.021,49.777
						L667.969,242.167z"/>
					<path clip-path="url(#SVGID_14_)" fill="#006837" d="M1025.184,316.23l1.188-0.352c-0.188,0.053-1.116-1.91-1.711-3.339
						c-8.492-20.511,4.271-42.579,28.307-49.774c24.043-7.201,50.866,4.665,59.361,25.181c0.632,1.52,0.692,1.988,1.981,5.666
						l0.556-0.168l-0.359,1.819c0.513,2.807,0.487,5.168,0.295,7.927c-0.083,1.192-0.334,2.16-0.541,3.329l-0.142,112.372
						L1025.184,316.23z"/>
					<path clip-path="url(#SVGID_14_)" fill="#006837" d="M926.537,152.372l1.188-0.352c-0.189,0.053-1.115-1.909-1.711-3.339
						c-8.493-20.512,4.271-42.579,28.308-49.777c24.042-7.2,50.864,4.667,59.362,25.184c0.631,1.52,0.689,1.987,1.979,5.666
						l0.555-0.168l-0.357,1.819c0.512,2.807,0.485,5.169,0.296,7.927c-0.086,1.192-0.335,2.16-0.543,3.33l-0.143,112.372
						L926.537,152.372z"/>
					<path clip-path="url(#SVGID_14_)" fill="#006837" d="M1648.38,248.681l1.189-0.355c-0.189,0.053-1.117-1.906-1.711-3.336
						c-8.493-20.512,4.269-42.579,28.307-49.777c24.042-7.201,50.864,4.665,59.361,25.181c0.633,1.52,0.69,1.99,1.981,5.668
						l0.555-0.168l-0.359,1.819c0.514,2.807,0.486,5.166,0.296,7.924c-0.083,1.194-0.333,2.162-0.542,3.332l-0.143,112.369
						L1648.38,248.681z"/>
					<path clip-path="url(#SVGID_14_)" fill="#006837" d="M1268.443,181.327l1.254,0.095c-0.197-0.018-0.093-2.131,0.063-3.633
						c2.191-21.657,24.521-37.233,49.924-35.311c25.405,1.919,44.107,22.162,41.911,43.821c-0.161,1.606-0.333,2.05-0.938,5.854
						l0.582,0.04l-1.202,1.529c-0.892,2.732-2.063,4.874-3.573,7.312c-0.653,1.059-1.349,1.852-2.109,2.843l-54.58,102.17
						L1268.443,181.327z"/>
					<path clip-path="url(#SVGID_14_)" fill="#006837" d="M1453.66,380.05l1.095-0.527c-0.168,0.083-1.483-1.715-2.354-3.032
						c-12.528-18.961-4.439-42.59,17.765-53.228c22.209-10.637,51.024-2.902,63.554,16.059c0.93,1.409,1.08,1.856,3.099,5.29
						l0.513-0.245l0.019,1.841c1.071,2.691,1.525,5.025,1.899,7.768c0.154,1.188,0.105,2.178,0.14,3.363l22.661,110.742
						L1453.66,380.05z"/>
					<path clip-path="url(#SVGID_14_)" fill="#006837" d="M313.56,220.42l1.254,0.079c-0.197-0.012-0.124-2.127,0.005-3.634
						c1.854-21.68,23.94-37.508,49.368-35.875c25.43,1.634,44.447,21.663,42.593,43.343c-0.139,1.608-0.307,2.055-0.85,5.861
						l0.583,0.037l-1.182,1.541c-0.847,2.739-1.982,4.9-3.456,7.355c-0.641,1.063-1.321,1.858-2.06,2.862l-52.984,102.787
						L313.56,220.42z"/>
					<path clip-path="url(#SVGID_14_)" fill="#006837" d="M466.213,132.754l1.131-0.467c-0.178,0.073-1.361-1.787-2.138-3.146
						c-11.179-19.565-1.44-42.73,21.477-52.216c22.92-9.482,51.144-0.29,62.318,19.276c0.832,1.454,0.949,1.909,2.721,5.439
						l0.528-0.22l-0.113,1.84c0.884,2.735,1.173,5.09,1.353,7.847c0.073,1.198-0.043,2.18-0.095,3.366l14.834,111.688
						L466.213,132.754z"/>
					<path clip-path="url(#SVGID_14_)" fill="#006837" d="M165.797,36.773l0.418,1.015c-0.064-0.157,2.234-0.947,3.904-1.447
						c24.05-7.18,49.949,3.772,58.432,24.292c8.48,20.52-5.395,43.354-29.44,50.539c-1.785,0.529-2.329,0.58-6.642,1.671
						l0.195,0.469l-2.133-0.311c-3.286,0.432-6.06,0.404-9.294,0.229c-1.399-0.078-2.53-0.293-3.902-0.473l-131.794-0.474
						L165.797,36.773z"/>
				</g>
			</g>
		</g>
	</g>
</g>
</svg>
