<?xml version="1.0" encoding="utf-8"?>
<!-- Generator: Adobe Illustrator 16.0.0, SVG Export Plug-In . SVG Version: 6.00 Build 0)  -->
<!DOCTYPE svg PUBLIC "-//W3C//DTD SVG 1.1//EN" "http://www.w3.org/Graphics/SVG/1.1/DTD/svg11.dtd">
<svg version="1.1" xmlns="http://www.w3.org/2000/svg" xmlns:xlink="http://www.w3.org/1999/xlink" x="0px" y="0px"
	 width="616.664px" height="284px" viewBox="0 0 616.664 284" enable-background="new 0 0 616.664 284" xml:space="preserve">
<g id="Layer_2" display="none">
	<rect x="-85" y="-513" display="inline" fill="#FFEECF" width="750" height="1334"/>
</g>
<g id="Layer_1">
	<g>
		<defs>
			<rect id="SVGID_1_" x="-85" y="-513" width="750" height="1334"/>
		</defs>
		<clipPath id="SVGID_2_">
			<use xlink:href="#SVGID_1_"  overflow="visible"/>
		</clipPath>
		<path clip-path="url(#SVGID_2_)" fill="#F34A53" d="M67.161,78.967c-2.785,0-5.105,2.321-5.105,5.105v55.926H27.247V84.072
			c0-2.784-2.32-5.105-5.105-5.105c-2.785,0-5.105,2.321-5.105,5.105v152.229c0,2.785,2.32,5.105,5.105,5.105
			c2.785,0,5.105-2.32,5.105-5.105v-67.296h34.809v67.296c0,2.785,2.32,5.105,5.105,5.105c2.784,0,5.105-2.32,5.105-5.105V84.072
			C72.266,81.288,69.945,78.967,67.161,78.967 M62.056,158.795H27.247v-8.586h34.809V158.795z"/>
		<path clip-path="url(#SVGID_2_)" fill="#F34A53" d="M131.209,76.646c-15.78,0-28.775,12.531-28.775,28.079v110.923
			c0,15.547,12.995,28.078,28.775,28.078c15.779,0,28.774-12.531,28.774-28.078V104.726
			C159.983,89.177,146.988,76.646,131.209,76.646 M149.773,215.648c0,9.979-8.354,17.868-18.564,17.868
			c-10.211,0-18.565-7.89-18.565-17.868V104.726c0-9.978,8.354-17.868,18.565-17.868c10.21,0,18.564,7.89,18.564,17.868V215.648z"/>
		<path clip-path="url(#SVGID_2_)" fill="#F34A53" d="M234.24,78.967h-48.268c-2.784,0-5.105,2.321-5.105,5.105
			c0,2.785,2.321,5.105,5.105,5.105h19.029v147.124c0,2.785,2.321,5.105,5.105,5.105c2.785,0,5.104-2.32,5.104-5.105V89.177h19.029
			c2.785,0,5.105-2.32,5.105-5.105C239.345,81.288,237.025,78.967,234.24,78.967"/>
		<path clip-path="url(#SVGID_2_)" fill="#F34A53" d="M368.364,78.967h-32.023c-10.211,0-18.564,8.122-18.564,18.333v139
			c0,2.785,2.32,5.105,5.104,5.105c2.785,0,5.105-2.32,5.105-5.105v-71.938h29.471c2.785,0,5.105-2.32,5.105-5.104
			c0-2.786-2.32-5.106-5.105-5.106h-29.471v-10.675h29.471c2.785,0,5.105-2.32,5.105-5.105c0-2.784-2.32-5.104-5.105-5.104h-29.471
			V97.3c0-4.41,3.945-8.123,8.354-8.123h32.023c2.784,0,5.105-2.32,5.105-5.105C373.47,81.288,371.148,78.967,368.364,78.967"/>
		<path clip-path="url(#SVGID_2_)" fill="#F34A53" d="M415.24,89.178h16.708c2.784,0,5.104-2.32,5.104-5.105
			s-2.319-5.105-5.104-5.105H415.24c-10.211,0-18.564,8.122-18.564,18.332v125.773c0,10.21,8.354,18.333,18.564,18.333h16.708
			c2.784,0,5.104-2.32,5.104-5.105c0-2.784-2.319-5.105-5.104-5.105H415.24c-4.409,0-8.354-3.713-8.354-8.122v-20.188h25.063
			c2.784,0,5.104-2.32,5.104-5.105c0-2.784-2.319-5.104-5.104-5.104h-25.063V97.3C406.886,92.891,410.831,89.178,415.24,89.178"/>
		<path clip-path="url(#SVGID_2_)" fill="#F34A53" d="M490.192,141.622c-12.531-3.713-20.886-12.763-20.886-22.741v-14.155
			c0-9.979,8.354-17.869,18.564-17.869c10.443,0,18.564,7.89,18.564,17.869c0,2.784,2.32,5.104,5.105,5.104s5.105-2.32,5.105-5.104
			c0-15.548-12.763-28.08-28.775-28.08c-15.779,0-28.774,12.532-28.774,28.08v14.155c0,14.155,10.675,27.15,28.079,32.488
			c11.603,3.48,20.421,13.691,20.421,23.901v39.218c0,10.441-8.818,19.029-19.726,19.029c-11.139,0-19.725-8.355-19.725-19.029
			c0-2.785-2.32-5.105-5.104-5.105c-2.786,0-5.105,2.32-5.105,5.105c0,16.243,13.228,29.238,29.935,29.238
			c16.477,0,29.936-12.995,29.936-29.238v-39.218C517.807,160.419,506.668,146.959,490.192,141.622"/>
		<path clip-path="url(#SVGID_2_)" fill="#F34A53" d="M585.101,78.967h-48.268c-2.784,0-5.104,2.321-5.104,5.105
			c0,2.785,2.32,5.105,5.104,5.105h19.029v147.124c0,2.785,2.32,5.105,5.104,5.105c2.785,0,5.105-2.32,5.105-5.105V89.177h19.028
			c2.785,0,5.104-2.32,5.104-5.105C590.205,81.288,587.886,78.967,585.101,78.967"/>
		<path clip-path="url(#SVGID_2_)" fill="#F34A53" d="M68.156,31.157c4.588,10.271-0.783,22.515-11.279,28.942
			c-4.663,2.856-12.714,5.491-18.54,5.168c-6.727-0.372-12.08-4.505-15.184-9.154c-1.691-2.533-2.779-5.351-3.106-8.23
			c-0.156-1.373-0.143-2.761,0.064-4.13c0.086-0.565,1.299-3.37,1.053-3.701c2.923,3.935,7.723,8.468,12.998,6.892
			c4.922-1.471,5.477-6.916,5.171-11.21c-0.227-3.175-0.466-6.401-1.782-9.391c-1.917-4.354-6.046-8.042-6.865-12.623
			C29.636,7.854,35.283,1.746,42.446,1c-2.442,7.646,2.23,16.422,10.72,20.145c3.718,1.63,8.09,2.409,11.139,4.798
			C66.113,27.357,67.296,29.231,68.156,31.157"/>
		<g clip-path="url(#SVGID_2_)">
			<defs>
				<rect id="SVGID_3_" x="2.583" y="68.36" width="83.466" height="34.319"/>
			</defs>
			<clipPath id="SVGID_4_">
				<use xlink:href="#SVGID_3_"  overflow="visible"/>
			</clipPath>
			<g clip-path="url(#SVGID_4_)">
				<defs>
					<rect id="SVGID_5_" x="2.583" y="68.36" width="83.466" height="34.319"/>
				</defs>
				<clipPath id="SVGID_6_">
					<use xlink:href="#SVGID_5_"  overflow="visible"/>
				</clipPath>
				<path clip-path="url(#SVGID_6_)" fill="#F34A53" d="M85.273,68.36c3.182,11.669-3.678,24.774-15.8,30.196l-2.661-12.432
					c2.844-1.589,5.513-3.434,7.961-5.476c0.071-0.178,0.12-0.356,0.19-0.534c0.029,0.111,0.025,0.231,0.054,0.342
					C79.152,76.947,82.648,72.858,85.273,68.36"/>
				<path clip-path="url(#SVGID_6_)" fill="#F34A53" d="M17.075,83.748l5.621,18.931C8.87,97.44,0.209,82.453,3.16,68.901
					C4.308,75.732,9.948,81.747,17.075,83.748"/>
			</g>
		</g>
		<path clip-path="url(#SVGID_2_)" fill="#F04B54" stroke="#F34A53" stroke-miterlimit="10" d="M556.479,236.494
			c-0.357,13.352,1.394,27.98,15.34,33.819c7.788,3.261,16.159-0.248,22.608-4.969c7.699-5.636,11.083-15.26,12.883-24.351
			c1.193-6.034-8.059-8.617-9.258-2.552c-1.319,6.666-3.331,14.786-9.022,19.024c-4.765,3.549-10.749,6.38-16.086,2.592
			c-7.377-5.234-7.084-15.354-6.864-23.564C566.245,230.314,556.646,230.318,556.479,236.494"/>
		<path clip-path="url(#SVGID_2_)" fill="#F34A53" d="M590,241.5c-3-1,25,13,25,13v-37L590,241.5z"/>
	</g>
</g>
</svg>
